# AST/ASF file generated using VICON BodyLanguage
# -----------------------------------------------
:version 1.10
:name VICON
:units
  mass 1.0
  length 0.45
  angle deg
:documentation
   .ast/.asf automatically generated from VICON data using
   VICON BodyBuilder and BodyLanguage model FoxedUp or BRILLIANT.MOD
:root
   order TX TY TZ RX RY RZ
   axis XYZ
   position 0 0 0  
   orientation 0 0 0 
:bonedata
  begin
     id 1 
     name lhipjoint
     direction 0.78388 -0.462562 0.414208 
     length 3.01181 
     axis 0 0 0  XYZ
  end
  begin
     id 2 
     name lfemur
     direction 0.34202 -0.939693 0  
     length 6.04673  
     axis 0 0 20  XYZ
    dof rx ry rz
    limits (-160.0 20.0)
           (-70.0 70.0)
           (-60.0 70.0)
  end
  begin
     id 3 
     name ltibia
     direction 0.34202 -0.939693 0   
     length 7.211   
     axis 0 0 20   XYZ
    dof rx
    limits (-10.0 170.0)
  end
  begin
     id 4 
     name lfoot
     direction 0.121887 -0.334882 0.934344   
     length 2.13567   
     axis -90 7.62852e-016 20   XYZ
    dof rx rz
    limits (-45.0 90.0)
           (-70.0 20.0)
  end
  begin
     id 5 
     name ltoes
     direction 1.53555e-011 -4.2179e-011 1   
     length 1.05957   
     axis -90 7.62852e-016 20   XYZ
    dof rx
    limits (-90.0 20.0)
  end
  begin
     id 6 
     name rhipjoint
     direction -0.769387 -0.475875 0.426129   
     length 2.92756  
     axis 0 0 0  XYZ 
  end
  begin
     id 7 
     name rfemur
     direction -0.34202 -0.939693 0   
     length 6.35468   
     axis 0 0 -20   XYZ
    dof rx ry rz
    limits (-160.0 20.0)
           (-70.0 70.0)
           (-70.0 60.0)
  end
  begin
     id 8 
     name rtibia
     direction -0.34202 -0.939693 0   
     length 7.37886   
     axis 0 0 -20   XYZ
    dof rx
    limits (-10.0 170.0)
 end
 begin
     id 9 
     name rfoot
     direction -0.101763 -0.279592 0.954711   
     length 2.21478  
     axis -90 -7.62852e-016 -20   XYZ
    dof rx rz
    limits (-45.0 90.0)
           (-20.0 70.0)
  end
  begin
     id 10 
     name rtoes
     direction -1.53494e-011 -4.21851e-011 1   
     length 1.10506   
     axis -90 -7.62852e-016 -20   XYZ
    dof rx
    limits (-90.0 20.0)
  end
  begin
     id 11 
     name lowerback
     direction 0.00747405 0.999267 0.0375481   
     length 2.13259   
     axis 0 0 0   XYZ
    dof rx ry rz
    limits (-20.0 45.0)
           (-30.0 30.0)
           (-30.0 30.0)
  end
  begin
     id 12 
     name upperback
     direction 0.00661626 0.996177 0.0871029   
     length 2.10528   
     axis 0 0 0   XYZ
    dof rx ry rz
    limits (-20.0 45.0)
           (-30.0 30.0)
           (-30.0 30.0)
  end
  begin
     id 13 
     name thorax
     direction 0.00320659 0.997679 0.0680167   
     length 2.11338   
     axis 0 0 0   XYZ
    dof rx ry rz
    limits (-20.0 45.0)
           (-30.0 30.0)
           (-30.0 30.0)
  end
  begin
     id 14 
     name lowerneck
     direction 0.0374841 0.973033 0.227602   
     length 1.42765   
     axis 0 0 0   XYZ
    dof rx ry rz
    limits (-20.0 45.0)
           (-30.0 30.0)
           (-30.0 30.0)
  end
  begin
     id 15 
     name upperneck
     direction 0.00481585 0.989155 -0.146795   
     length 1.47593   
     axis 0 0 0   XYZ
    dof rx ry rz
    limits (-20.0 45.0)
           (-30.0 30.0)
           (-30.0 30.0)
  end
  begin
     id 16
     name head
     direction -0.00292522 0.997206 -0.0746423  
     length 1.48116  
     axis 0 0 0   XYZ
    dof rx ry rz
    limits (-20.0 45.0)
           (-30.0 30.0)
           (-30.0 30.0)
  end
  begin
     id 17 
     name lclavicle
     direction 0.951444 0.305606 0.0368784  
     length 3.01855  
     axis 0 0 0   XYZ
    dof ry rz
    limits (-20.0 10.0)
           (0.0 20.0)
  end
  begin
     id 18 
     name lhumerus
     direction 1 -4.48977e-011 2.61664e-027   
     length 5.52731   
     axis 180 -30 -90   XYZ
    dof rx ry rz
    limits (-60.0 90.0)
           (-90.0 90.0)
           (-90.0 90.0)
  end
  begin
     id 19
     name lradius
     direction 1 -4.48944e-011 8.22157e-027   
     length 3.11059   
     axis 180 -30 -90   XYZ
    dof rx
    limits (-10.0 170.0)
  end
  begin
     id 20
     name lwrist
     direction 1 -4.48976e-011 1.5779e-026   
     length 1.5553   
     axis -1.15221e-014 90 90   XYZ
    dof ry
    limits (-180.0 0.0)
 end
  begin
     id 21 
     name lhand
     direction 1 -4.49025e-011 3.1558e-026   
     length 0.419626   
     axis -2.01367e-014 90 90   XYZ
    dof rx rz
    limits (-90.0 90.0)
           (-45.0 45.0)
  end
  begin
     id 22 
     name lfingers
     direction 1 -4.4904e-011 6.31161e-026   
     length 0.338313   
     axis -4.02734e-014 90 90   XYZ
    dof rx
    limits (0.0 90.0)
  end
  begin
     id 23
     name lthumb
     direction 0.707107 -6.35004e-011 0.707107   
     length 0.485752   
     axis -90 45 2.85299e-015   XYZ
    dof rx rz
    limits (-45.0 45.0)
           (-45.0 45.0)
  end
  begin
     id 24 
     name rclavicle
     direction -0.968876 0.223791 0.105816   
     length 3.04177  
     axis 0 0 0   XYZ 
    dof ry rz
    limits (-10.0 20.0)
           (-20.0 0.0)
  end
  begin
     id 25 
     name rhumerus
     direction -1 -4.48962e-011 -1.01384e-027  
     length 5.25396   
     axis 180 30 90   XYZ
    dof rx ry rz
    limits (-90.0 60.0)
           (-90.0 90.0)
           (-90.0 90.0)
  end
  begin
     id 26 
     name rradius
     direction -1 -4.48955e-011 8.88542e-027   
     length 3.10567   
     axis 180 30 90   XYZ
    dof rx
    limits (-10.0 170.0)
  end
  begin
     id 27 
     name rwrist
     direction -1 -4.48994e-011 1.5779e-026   
     length 1.55283   
     axis -1.15221e-014 -90 -90   XYZ
    dof ry
    limits (-180.0 0.0)
  end
  begin
     id 28
     name rhand
     direction -1 -4.48891e-011 3.1558e-026   
     length 0.498676   
     axis -2.01367e-014 -90 -90   XYZ
    dof rx rz
    limits (-90.0 90.0)
           (-45.0 45.0)
  end
  begin
     id 29
     name rfingers
     direction -1 -4.48972e-011 6.31161e-026   
     length 0.402045   
     axis -4.02734e-014 -90 -90   XYZ
    dof rx
    limits (0.0 90.0)
  end
  begin
     id 30
     name rthumb
     direction -0.707107 -6.34849e-011 0.707107   
     length 0.577259   
     axis -90 -45 -2.85299e-015   XYZ
    dof rx rz
    limits (-45.0 45.0)
           (-45.0 45.0)
  end
:hierarchy
  begin
    root lhipjoint rhipjoint lowerback
    lhipjoint lfemur
    lfemur ltibia
    ltibia lfoot
    lfoot ltoes
    rhipjoint rfemur
    rfemur rtibia
    rtibia rfoot
    rfoot rtoes
    lowerback upperback
    upperback thorax
    thorax lowerneck lclavicle rclavicle
    lowerneck upperneck
    upperneck head
    lclavicle lhumerus
    lhumerus lradius
    lradius lwrist
    lwrist lhand lthumb
    lhand lfingers
    rclavicle rhumerus
    rhumerus rradius
    rradius rwrist
    rwrist rhand rthumb
    rhand rfingers
  end

#!OML:ASF H:\Pregnant\Project 1\Capture day 1\Session 1\femalepreg.ASF
:FULLY-SPECIFIED
:DEGREES
119
root 2.17695 15.8734 31.6678 82.2254 -88.9387 -56.6546
lowerback -14.9301 0.703643 0.303482
upperback -6.37327 0.499104 1.71628
thorax 1.62162 0.118547 1.69782
lowerneck -15.6113 9.07727 11.4926
upperneck 16.6146 7.38906 9.19762
head 7.9219 4.99154 2.08526
rclavicle 5.96354e-015 1.78906e-014
rhumerus -29.7331 -24.2586 -41.2638
rradius 71.3846
rwrist 3.0398
rhand -49.5228 -22.8291
rfingers 7.12502
rthumb -22.131 -51.5824
lclavicle 5.96354e-015 1.78906e-014
lhumerus -48.5083 6.23671 60.0353
lradius 40.0349
lwrist 42.7467
lhand -20.205 5.15068
lfingers 7.12502
lthumb 6.14188 35.0417
rfemur -39.2442 18.9127 15.9921
rtibia 27.629
rfoot -10.3189 -17.5266
rtoes 6.18595
lfemur 0 0 0
ltibia 0
lfoot 0 0
ltoes 0
120
root 2.20025 15.8798 31.6647 79.3721 -88.9627 -53.3226
lowerback -14.7474 0.76507 0.370171
upperback -6.34325 0.579236 1.6995
thorax 1.55502 0.159603 1.65332
lowerneck -15.6868 9.12952 11.5616
upperneck 16.882 7.36268 9.34166
head 8.0266 5.00905 2.135
rclavicle 7.50412e-015 -4.37326e-015
rhumerus -28.9956 -23.0443 -42.3198
rradius 73.1436
rwrist 3.77046
rhand -50.3177 -21.6277
rfingers 7.12502
rthumb -22.894 -50.2887
lclavicle 7.50412e-015 -4.37326e-015
lhumerus -48.4208 7.00121 59.0475
lradius 39.987
lwrist 42.764
lhand -20.9702 4.87012
lfingers 7.12502
lthumb 5.40309 34.7812
rfemur -39.9319 19.016 15.6465
rtibia 27.6335
rfoot -10.1583 -17.7061
rtoes 6.25587
lfemur 0 0 0
ltibia 0
lfoot 0 0
ltoes 0
121
root 2.22473 15.8864 31.6615 76.3491 -88.9878 -49.8075
lowerback -14.5525 0.828968 0.442969
upperback -6.31309 0.663062 1.66762
thorax 1.48233 0.202366 1.58966
lowerneck -15.7465 9.17924 11.6678
upperneck 17.1495 7.32764 9.46841
head 8.13164 5.02285 2.17223
rclavicle 4.37326e-015 -2.18663e-014
rhumerus -28.2893 -21.789 -43.382
rradius 74.8815
rwrist 4.45364
rhand -51.0129 -20.2445
rfingers 7.12502
rthumb -23.561 -48.8213
lclavicle 4.37326e-015 -2.18663e-014
lhumerus -48.3374 7.76995 58.0391
lradius 39.9718
lwrist 42.8332
lhand -21.6982 4.63523
lfingers 7.12502
lthumb 4.70023 34.5631
rfemur -40.6429 19.1198 15.2823
rtibia 27.6397
rfoot -9.98885 -17.8922
rtoes 6.29865
lfemur 0 0 0
ltibia 0
lfoot 0 0
ltoes 0
122
root 2.25041 15.8929 31.6582 72.7803 -89.0116 -45.732
lowerback -14.3469 0.894087 0.517157
upperback -6.28249 0.74945 1.62389
thorax 1.40472 0.246372 1.51273
lowerneck -15.798 9.23 11.8009
upperneck 17.4191 7.29007 9.57919
head 8.23841 5.03573 2.20003
rclavicle 3.8763e-015 1.19271e-014
rhumerus -27.6169 -20.4875 -44.4424
rradius 76.5984
rwrist 5.08825
rhand -51.6436 -18.7766
rfingers 7.12502
rthumb -24.1658 -47.2743
lclavicle 3.8763e-015 1.19271e-014
lhumerus -48.2541 8.54162 57.019
lradius 39.9863
lwrist 42.9681
lhand -22.4199 4.38161
lfingers 7.12502
lthumb 4.00332 34.3237
rfemur -41.3784 19.2164 14.8993
rtibia 27.6488
rfoot -9.80995 -18.0823
rtoes 6.3182
lfemur 0 0 0
ltibia 0
lfoot 0 0
ltoes 0
123
root 2.27719 15.8997 31.6547 69.0055 -89.0324 -41.4356
lowerback -14.1351 0.9603 0.59068
upperback -6.2485 0.838134 1.57684
thorax 1.32755 0.291603 1.43264
lowerneck -15.8521 9.27868 11.9482
upperneck 17.7028 7.24858 9.66409
head 8.35251 5.04646 2.21773
rclavicle 8.24956e-015 5.56597e-015
rhumerus -26.9674 -19.1198 -45.4938
rradius 78.2876
rwrist 5.68813
rhand -52.1762 -17.2997
rfingers 7.12502
rthumb -24.6764 -45.7286
lclavicle 8.24956e-015 5.56597e-015
lhumerus -48.1709 9.29928 56.0164
lradius 40.0324
lwrist 43.2083
lhand -23.1491 4.11784
lfingers 7.12502
lthumb 3.29916 34.0721
rfemur -42.1402 19.3129 14.4995
rtibia 27.6611
rfoot -9.6134 -18.2797
rtoes 6.28436
lfemur 0 0 0
ltibia 0
lfoot 0 0
ltoes 0
